<?xml version="1.0" encoding="UTF-8" standalone="no"?>
<!DOCTYPE svg PUBLIC "-//W3C//DTD SVG 1.1//EN"
 "http://www.w3.org/Graphics/SVG/1.1/DTD/svg11.dtd">
<!-- Generated by graphviz version 2.26.3 (20100126.1600)
 -->
<!-- Title: controllers_diagram Pages: 1 -->
<svg width="480pt" height="301pt"
 viewBox="0.00 0.00 480.00 301.00" xmlns="http://www.w3.org/2000/svg" xmlns:xlink="http://www.w3.org/1999/xlink">
<g id="graph1" class="graph" transform="scale(1 1) rotate(0) translate(4 297)">
<title>controllers_diagram</title>
<polygon fill="white" stroke="white" points="-4,5 -4,-297 477,-297 477,5 -4,5"/>
<!-- _diagram_info -->
<g id="node1" class="node"><title>_diagram_info</title>
<text text-anchor="start" x="229" y="-276.3" font-family="Times Roman,serif" font-size="13.00">Controllers diagram</text>
<text text-anchor="start" x="229" y="-259.3" font-family="Times Roman,serif" font-size="13.00">Date: Apr 18 2013 &#45; 04:45</text>
<text text-anchor="start" x="229" y="-242.3" font-family="Times Roman,serif" font-size="13.00">Migration version: 20130409152553</text>
<text text-anchor="start" x="229" y="-225.3" font-family="Times Roman,serif" font-size="13.00">Generated by RailRoady 1.0.8</text>
<text text-anchor="start" x="229" y="-208.3" font-family="Times Roman,serif" font-size="13.00">http://railroady.prestonlee.com</text>
</g>
<!-- OrganizationsController -->
<g id="node2" class="node"><title>OrganizationsController</title>
<polyline fill="none" stroke="black" points="13,-1.5 171,-1.5 "/>
<path fill="none" stroke="black" d="M171,-1.5C177,-1.5 183,-7.5 183,-13.5"/>
<polyline fill="none" stroke="black" points="183,-13.5 183,-217.5 "/>
<path fill="none" stroke="black" d="M183,-217.5C183,-223.5 177,-229.5 171,-229.5"/>
<polyline fill="none" stroke="black" points="171,-229.5 13,-229.5 "/>
<path fill="none" stroke="black" d="M13,-229.5C7,-229.5 1,-223.5 1,-217.5"/>
<polyline fill="none" stroke="black" points="1,-217.5 1,-13.5 "/>
<path fill="none" stroke="black" d="M1,-13.5C1,-7.5 7,-1.5 13,-1.5"/>
<text text-anchor="middle" x="92" y="-212.9" font-family="Times Roman,serif" font-size="14.00">OrganizationsController</text>
<polyline fill="none" stroke="black" points="1,-203.5 183,-203.5 "/>
<text text-anchor="start" x="9" y="-186.9" font-family="Times Roman,serif" font-size="14.00">create</text>
<text text-anchor="start" x="9" y="-168.9" font-family="Times Roman,serif" font-size="14.00">destroy</text>
<text text-anchor="start" x="9" y="-150.9" font-family="Times Roman,serif" font-size="14.00">edit</text>
<text text-anchor="start" x="9" y="-132.9" font-family="Times Roman,serif" font-size="14.00">index</text>
<text text-anchor="start" x="9" y="-114.9" font-family="Times Roman,serif" font-size="14.00">new</text>
<text text-anchor="start" x="9" y="-96.9" font-family="Times Roman,serif" font-size="14.00">search</text>
<text text-anchor="start" x="9" y="-78.9" font-family="Times Roman,serif" font-size="14.00">show</text>
<text text-anchor="start" x="9" y="-60.9" font-family="Times Roman,serif" font-size="14.00">update</text>
<polyline fill="none" stroke="black" points="1,-51.5 183,-51.5 "/>
<polyline fill="none" stroke="black" points="1,-27.5 183,-27.5 "/>
<text text-anchor="start" x="9" y="-10.9" font-family="Times Roman,serif" font-size="14.00">_layout</text>
</g>
<!-- ApplicationController -->
<g id="node3" class="node"><title>ApplicationController</title>
<polyline fill="none" stroke="black" points="233,-23.5 447,-23.5 "/>
<path fill="none" stroke="black" d="M447,-23.5C453,-23.5 459,-29.5 459,-35.5"/>
<polyline fill="none" stroke="black" points="459,-35.5 459,-149.5 "/>
<path fill="none" stroke="black" d="M459,-149.5C459,-155.5 453,-161.5 447,-161.5"/>
<polyline fill="none" stroke="black" points="447,-161.5 233,-161.5 "/>
<path fill="none" stroke="black" d="M233,-161.5C227,-161.5 221,-155.5 221,-149.5"/>
<polyline fill="none" stroke="black" points="221,-149.5 221,-35.5 "/>
<path fill="none" stroke="black" d="M221,-35.5C221,-29.5 227,-23.5 233,-23.5"/>
<text text-anchor="middle" x="340" y="-144.9" font-family="Times Roman,serif" font-size="14.00">ApplicationController</text>
<polyline fill="none" stroke="black" points="221,-135.5 459,-135.5 "/>
<text text-anchor="start" x="229" y="-118.9" font-family="Times Roman,serif" font-size="14.00">_one_time_conditions_valid_38?</text>
<text text-anchor="start" x="229" y="-100.9" font-family="Times Roman,serif" font-size="14.00">after_sign_in_path_for</text>
<polyline fill="none" stroke="black" points="221,-91.5 459,-91.5 "/>
<polyline fill="none" stroke="black" points="221,-67.5 459,-67.5 "/>
<text text-anchor="start" x="229" y="-50.9" font-family="Times Roman,serif" font-size="14.00">_layout</text>
<text text-anchor="start" x="229" y="-32.9" font-family="Times Roman,serif" font-size="14.00">_run_process_action_callbacks</text>
</g>
</g>
</svg>
