<?xml version="1.0" encoding="UTF-8" standalone="no"?>
<!DOCTYPE svg PUBLIC "-//W3C//DTD SVG 1.1//EN"
 "http://www.w3.org/Graphics/SVG/1.1/DTD/svg11.dtd">
<!-- Generated by graphviz version 2.26.3 (20100126.1600)
 -->
<!-- Title: models_diagram Pages: 1 -->
<svg width="712pt" height="296pt"
 viewBox="0.00 0.00 712.00 296.00" xmlns="http://www.w3.org/2000/svg" xmlns:xlink="http://www.w3.org/1999/xlink">
<g id="graph1" class="graph" transform="scale(1 1) rotate(0) translate(4 292)">
<title>models_diagram</title>
<polygon fill="white" stroke="white" points="-4,5 -4,-292 709,-292 709,5 -4,5"/>
<!-- _diagram_info -->
<g id="node1" class="node"><title>_diagram_info</title>
<text text-anchor="start" x="8" y="-174.8" font-family="Times Roman,serif" font-size="13.00">Models diagram</text>
<text text-anchor="start" x="8" y="-157.8" font-family="Times Roman,serif" font-size="13.00">Date: Apr 18 2013 &#45; 04:45</text>
<text text-anchor="start" x="8" y="-140.8" font-family="Times Roman,serif" font-size="13.00">Migration version: 20130409152553</text>
<text text-anchor="start" x="8" y="-123.8" font-family="Times Roman,serif" font-size="13.00">Generated by RailRoady 1.0.8</text>
<text text-anchor="start" x="8" y="-106.8" font-family="Times Roman,serif" font-size="13.00">http://railroady.prestonlee.com</text>
</g>
<!-- Organization -->
<g id="node2" class="node"><title>Organization</title>
<polyline fill="none" stroke="black" points="279.5,-1 420.5,-1 "/>
<path fill="none" stroke="black" d="M420.5,-1C426.5,-1 432.5,-7 432.5,-13"/>
<polyline fill="none" stroke="black" points="432.5,-13 432.5,-275 "/>
<path fill="none" stroke="black" d="M432.5,-275C432.5,-281 426.5,-287 420.5,-287"/>
<polyline fill="none" stroke="black" points="420.5,-287 279.5,-287 "/>
<path fill="none" stroke="black" d="M279.5,-287C273.5,-287 267.5,-281 267.5,-275"/>
<polyline fill="none" stroke="black" points="267.5,-275 267.5,-13 "/>
<path fill="none" stroke="black" d="M267.5,-13C267.5,-7 273.5,-1 279.5,-1"/>
<text text-anchor="middle" x="350" y="-270.4" font-family="Times Roman,serif" font-size="14.00">Organization</text>
<polyline fill="none" stroke="black" points="267.5,-261 432.5,-261 "/>
<text text-anchor="start" x="275.5" y="-244.4" font-family="Times Roman,serif" font-size="14.00">id :integer</text>
<text text-anchor="start" x="275.5" y="-226.4" font-family="Times Roman,serif" font-size="14.00">name :string</text>
<text text-anchor="start" x="275.5" y="-208.4" font-family="Times Roman,serif" font-size="14.00">address :string</text>
<text text-anchor="start" x="275.5" y="-190.4" font-family="Times Roman,serif" font-size="14.00">postcode :string</text>
<text text-anchor="start" x="275.5" y="-172.4" font-family="Times Roman,serif" font-size="14.00">email :string</text>
<text text-anchor="start" x="275.5" y="-154.4" font-family="Times Roman,serif" font-size="14.00">description :string</text>
<text text-anchor="start" x="275.5" y="-136.4" font-family="Times Roman,serif" font-size="14.00">website :string</text>
<text text-anchor="start" x="275.5" y="-118.4" font-family="Times Roman,serif" font-size="14.00">telephone :string</text>
<text text-anchor="start" x="275.5" y="-100.4" font-family="Times Roman,serif" font-size="14.00">created_at :datetime</text>
<text text-anchor="start" x="275.5" y="-82.4" font-family="Times Roman,serif" font-size="14.00">updated_at :datetime</text>
<text text-anchor="start" x="275.5" y="-64.4" font-family="Times Roman,serif" font-size="14.00">latitude :float</text>
<text text-anchor="start" x="275.5" y="-46.4" font-family="Times Roman,serif" font-size="14.00">longitude :float</text>
<text text-anchor="start" x="275.5" y="-28.4" font-family="Times Roman,serif" font-size="14.00">gmaps :boolean</text>
<text text-anchor="start" x="275.5" y="-10.4" font-family="Times Roman,serif" font-size="14.00">donation_info :text</text>
</g>
<!-- CharityWorker -->
<g id="node3" class="node"><title>CharityWorker</title>
<polyline fill="none" stroke="black" points="462,-10 692,-10 "/>
<path fill="none" stroke="black" d="M692,-10C698,-10 704,-16 704,-22"/>
<polyline fill="none" stroke="black" points="704,-22 704,-266 "/>
<path fill="none" stroke="black" d="M704,-266C704,-272 698,-278 692,-278"/>
<polyline fill="none" stroke="black" points="692,-278 462,-278 "/>
<path fill="none" stroke="black" d="M462,-278C456,-278 450,-272 450,-266"/>
<polyline fill="none" stroke="black" points="450,-266 450,-22 "/>
<path fill="none" stroke="black" d="M450,-22C450,-16 456,-10 462,-10"/>
<text text-anchor="middle" x="577" y="-261.4" font-family="Times Roman,serif" font-size="14.00">CharityWorker</text>
<polyline fill="none" stroke="black" points="450,-252 704,-252 "/>
<text text-anchor="start" x="458" y="-235.4" font-family="Times Roman,serif" font-size="14.00">id :integer</text>
<text text-anchor="start" x="458" y="-217.4" font-family="Times Roman,serif" font-size="14.00">email :string</text>
<text text-anchor="start" x="458" y="-199.4" font-family="Times Roman,serif" font-size="14.00">encrypted_password :string</text>
<text text-anchor="start" x="458" y="-181.4" font-family="Times Roman,serif" font-size="14.00">reset_password_token :string</text>
<text text-anchor="start" x="458" y="-163.4" font-family="Times Roman,serif" font-size="14.00">reset_password_sent_at :datetime</text>
<text text-anchor="start" x="458" y="-145.4" font-family="Times Roman,serif" font-size="14.00">remember_created_at :datetime</text>
<text text-anchor="start" x="458" y="-127.4" font-family="Times Roman,serif" font-size="14.00">sign_in_count :integer</text>
<text text-anchor="start" x="458" y="-109.4" font-family="Times Roman,serif" font-size="14.00">current_sign_in_at :datetime</text>
<text text-anchor="start" x="458" y="-91.4" font-family="Times Roman,serif" font-size="14.00">last_sign_in_at :datetime</text>
<text text-anchor="start" x="458" y="-73.4" font-family="Times Roman,serif" font-size="14.00">current_sign_in_ip :string</text>
<text text-anchor="start" x="458" y="-55.4" font-family="Times Roman,serif" font-size="14.00">last_sign_in_ip :string</text>
<text text-anchor="start" x="458" y="-37.4" font-family="Times Roman,serif" font-size="14.00">created_at :datetime</text>
<text text-anchor="start" x="458" y="-19.4" font-family="Times Roman,serif" font-size="14.00">updated_at :datetime</text>
</g>
</g>
</svg>
